<?xml version="1.0" encoding="UTF-8"?><svg id="Warstwa_2" xmlns="http://www.w3.org/2000/svg" viewBox="0 0 616.58 181.11"><defs><style>.cls-1{fill:#fbb814;}.cls-1,.cls-2,.cls-3,.cls-4,.cls-5{stroke-width:0px;}.cls-2{fill:#339fd9;}.cls-3{fill:#e95228;}.cls-4{fill:#1d1c2c;}.cls-5{fill:#7eba28;}</style></defs><g id="Warstwa_1-2"><path class="cls-2" d="M445.24,128.58l9.04-35.13h20.33l-14.69,35.13h-14.69Z"/><path class="cls-2" d="M487.03,181.11v-14.91l29.03-29.03c2.11-2.18,3.71-4.37,4.8-6.55,1.09-2.18,1.64-4.44,1.64-6.78,0-3.54-.9-6.27-2.71-8.19-1.81-1.92-4.29-2.88-7.46-2.88s-5.82,1-7.74,2.99c-1.92,2-2.88,4.76-2.88,8.3h-16.95c0-5.42,1.15-10.11,3.45-14.06,2.3-3.95,5.54-7.02,9.72-9.21,4.18-2.18,9.09-3.28,14.74-3.28s10.13,1,14.12,2.99c3.99,2,7.1,4.84,9.32,8.53,2.22,3.69,3.33,8.1,3.33,13.22,0,4.67-1.07,9.11-3.22,13.33-2.15,4.22-5.59,8.62-10.34,13.22l-17.51,17.06h31.97v15.25h-53.32Z"/><path class="cls-2" d="M588.7,181.11v-15.14h-36.15v-23.61l30.95-43.72h18.64l-33.78,48.46v4.18h20.33v-17.62h16.95v47.45h-16.95Z"/><path class="cls-4" d="M35.14,70.52H1v-12.31h10.38v-30.27H1v-12.31h34.14v12.31h-10.38v30.27h10.38v12.31ZM3.65,67.87h28.84v-7.01h-10.38V25.28h10.38v-7.01H3.65v7.01h10.38v35.58H3.65v7.01Z"/><path class="cls-4" d="M36.14,71.52H0v-14.31h10.38v-28.27H0v-14.31h36.14v14.31h-10.38v28.27h10.38v14.31ZM2,69.52h32.14v-10.31h-10.38V26.93h10.38v-10.31H2v10.31h10.38v32.27H2v10.31ZM33.49,68.87H2.65v-9.01h10.38V26.28H2.65v-9.01h30.84v9.01h-10.38v33.58h10.38v9.01ZM4.65,66.87h26.84v-5.01h-10.38V24.28h10.38v-5.01H4.65v5.01h10.38v37.58H4.65v5.01Z"/><path class="cls-4" d="M68.64,70.52h-13.39V27.93h-13.24v-12.31h39.87v12.31h-13.24v42.59ZM57.9,67.87h8.09V25.28h13.24v-7.01h-34.57v7.01h13.24v42.59Z"/><path class="cls-4" d="M69.64,71.52h-15.39V28.93h-13.24v-14.31h41.87v14.31h-13.24v42.59ZM56.25,69.52h11.39V26.93h13.24v-10.31h-37.87v10.31h13.24v42.59ZM66.99,68.87h-10.09V26.28h-13.24v-9.01h36.57v9.01h-13.24v42.59ZM58.9,66.87h6.09V24.28h13.24v-5.01h-32.57v5.01h13.24v42.59Z"/><path class="cls-4" d="M137.58,15.62h-15.67l-13.46,54.9h13.72l2.51-11.81h10.3l2.51,11.81h13.72l-13.61-54.9ZM132.57,47.47h-5.56l2.31-11.07c.19-.89.37-1.78.54-2.67.17.9.35,1.81.51,2.73l2.19,11.01Z"/><path class="cls-4" d="M179.64,53.91h13.05l-.06,1.38c-.2,4.9-2.02,8.83-5.41,11.69-3.34,2.82-7.81,4.25-13.31,4.25-3.68,0-6.95-.71-9.75-2.11-2.84-1.42-5.07-3.44-6.63-6.01-1.55-2.56-2.34-5.58-2.34-8.95v-9.31c0-3.43.79-6.46,2.34-9,1.56-2.54,3.79-4.55,6.63-5.97,2.8-1.4,6.08-2.1,9.75-2.1,5.49,0,9.97,1.43,13.31,4.25,3.38,2.86,5.2,6.79,5.41,11.69l.06,1.39h-13.05l-.1-1.21c-.11-1.29-.63-2.27-1.59-2.99-1.04-.79-2.36-1.16-4.03-1.16-1.78,0-3.14.43-4.02,1.28-.88.84-1.31,2.1-1.31,3.84v9.31c0,1.7.43,2.94,1.32,3.81.89.87,2.2,1.3,4.01,1.3,1.66,0,3.02-.38,4.05-1.14.95-.7,1.47-1.68,1.58-3.01l.1-1.21Z"/><path class="cls-4" d="M230.86,31.7c-3.19-2.6-7.54-3.91-12.93-3.91-3.5,0-6.61.56-9.25,1.68-2.7,1.14-4.83,2.8-6.33,4.93-1.5,2.13-2.32,4.68-2.42,7.55l-.05,1.37h12.72v-1.32c0-.85.34-1.46,1.1-1.98.9-.61,2.17-.92,3.8-.92s2.91.34,3.77,1c.77.61,1.14,1.44,1.14,2.61v1.53h-6.19c-5.61,0-10.02,1.16-13.1,3.45-3.21,2.38-4.83,5.83-4.83,10.27,0,4.04,1.31,7.3,3.9,9.7,2.56,2.37,6.03,3.58,10.31,3.58,3.92,0,7.1-.98,9.44-2.92.29-.25.57-.5.83-.77v2.97h13.03v-27.81c0-4.65-1.66-8.35-4.93-11.01ZM220.86,59.43c-1.13.91-2.56,1.35-4.36,1.35-1.58,0-2.82-.35-3.67-1.06-.79-.65-1.16-1.53-1.16-2.77s.36-2.03,1.13-2.67c.82-.67,2.05-1.02,3.63-1.02h5.98v2.9c0,1.36-.51,2.43-1.55,3.27Z"/><path class="cls-4" d="M266.13,15.62v12.12l.16,3.94c-2.28-2.58-5.4-3.89-9.28-3.89-4.16,0-7.6,1.57-10.21,4.65-2.56,3.03-3.86,7.08-3.86,12.06v10.02c0,4.98,1.3,9.03,3.86,12.06,2.61,3.09,6.05,4.66,10.21,4.66s7.18-1.39,9.48-4.12v3.4h13.03V15.62h-13.39ZM256.33,44.86c0-1.73.41-3.03,1.23-3.87.82-.84,2-1.25,3.6-1.25,1.68,0,2.9.43,3.71,1.32.84.91,1.26,2.31,1.26,4.15v8.59c0,1.84-.42,3.24-1.26,4.15-.82.89-2.03,1.32-3.71,1.32-1.59,0-2.77-.41-3.58-1.27-.84-.87-1.24-2.13-1.24-3.84v-9.31Z"/><path class="cls-4" d="M310.67,57.13l-.3.91c-.23.68-.69,1.21-1.43,1.62-.82.46-1.96.69-3.4.69-1.99,0-3.48-.5-4.41-1.48-.95-1.01-1.42-2.59-1.42-4.71v-.82h24.12v-8.48c0-3.38-.77-6.39-2.3-8.95-1.53-2.57-3.71-4.59-6.47-6.01-2.73-1.4-5.98-2.12-9.66-2.12s-6.95.71-9.72,2.11c-2.82,1.42-5.02,3.45-6.55,6.01-1.53,2.56-2.3,5.57-2.3,8.95v9.31c0,3.38.77,6.39,2.3,8.94,1.53,2.57,3.74,4.6,6.56,6.01,2.77,1.4,6.05,2.12,9.72,2.12,4.5,0,8.43-1.14,11.67-3.39,3.29-2.28,5.43-5.33,6.37-9.06l.41-1.65h-13.17ZM301.13,40.08c.92-1.05,2.31-1.55,4.26-1.55s3.32.48,4.19,1.48c.87,1,1.32,2.5,1.36,4.48l-11.23.11c.04-1.96.52-3.48,1.42-4.52Z"/><path class="cls-4" d="M369.06,39.13v31.39h-11.67v-30.17c0-.77-.14-1.36-.42-1.71-.15-.19-.4-.4-1.05-.4s-.89.21-1.04.4c-.28.35-.42.93-.42,1.71v30.17h-10.46v-30.17c0-.77-.14-1.36-.43-1.71-.14-.19-.4-.4-1.04-.4s-.89.21-1.04.4c-.28.35-.43.94-.43,1.71v30.17h-11.66V28.5h11.09v1.55c1.46-1.5,3.3-2.26,5.48-2.26,2.4,0,4.43.97,6.03,2.87.27.33.52.67.75,1.03.3-.5.65-.97,1.06-1.41,1.54-1.65,3.53-2.49,5.91-2.49,2.75,0,5.03,1.1,6.79,3.28,1.7,2.1,2.55,4.81,2.55,8.06Z"/><polygon class="cls-4" points="413.01 58.21 413.01 70.52 375.28 70.52 375.28 58.21 388.31 58.21 388.31 36.52 394.87 43.08 401.7 36.25 401.7 58.21 413.01 58.21"/><path class="cls-4" d="M442.88,53.91h13.06l-.06,1.38c-.2,4.9-2.02,8.83-5.41,11.69-3.33,2.82-7.81,4.25-13.31,4.25-3.68,0-6.95-.71-9.75-2.11-2.84-1.42-5.07-3.44-6.63-6.01-1.55-2.56-2.34-5.58-2.34-8.95v-9.31c0-3.43.79-6.46,2.35-9,1.55-2.54,3.78-4.55,6.62-5.97,2.8-1.4,6.08-2.1,9.75-2.1,5.5,0,9.97,1.43,13.31,4.25,3.38,2.86,5.2,6.79,5.41,11.69l.06,1.39h-13.05l-.11-1.21c-.11-1.29-.63-2.27-1.59-2.99-1.04-.79-2.36-1.16-4.03-1.16-1.78,0-3.14.43-4.02,1.28-.88.84-1.31,2.1-1.31,3.84v9.31c0,1.7.43,2.94,1.32,3.81.9.87,2.21,1.3,4.01,1.3,1.66,0,3.02-.38,4.05-1.14.95-.7,1.47-1.68,1.58-3.01l.1-1.21Z"/><path class="cls-4" d="M523.74,24.17c-1.63-2.7-3.92-4.83-6.83-6.33-2.88-1.47-6.27-2.22-10.09-2.22h-18.28v54.9h18.28c3.83,0,7.23-.76,10.1-2.26,2.91-1.52,5.2-3.67,6.83-6.4,1.62-2.73,2.44-5.92,2.44-9.49v-18.68c0-3.61-.82-6.82-2.44-9.52ZM506.82,58.21h-4.9v-30.28h4.9c1.81,0,3.23.53,4.34,1.6,1.1,1.06,1.63,2.43,1.63,4.16v18.68c0,1.74-.54,3.12-1.65,4.21-1.11,1.1-2.52,1.63-4.33,1.63Z"/><path class="cls-4" d="M563.99,31.7c-3.19-2.6-7.54-3.91-12.93-3.91-3.5,0-6.61.56-9.25,1.68-2.7,1.14-4.83,2.8-6.33,4.93-1.5,2.13-2.31,4.68-2.42,7.55l-.05,1.37h12.72v-1.32c0-.85.34-1.46,1.1-1.98.9-.61,2.17-.92,3.81-.92s2.91.34,3.76,1c.77.61,1.14,1.44,1.14,2.61v1.53h-6.19c-5.61,0-10.01,1.16-13.1,3.45-3.21,2.38-4.83,5.83-4.83,10.27,0,4.04,1.31,7.3,3.9,9.7,2.56,2.37,6.03,3.58,10.31,3.58,3.92,0,7.1-.98,9.44-2.92.3-.25.57-.5.83-.77v2.97h13.03v-27.81c0-4.65-1.66-8.35-4.93-11.01ZM553.98,59.43c-1.13.91-2.56,1.35-4.36,1.35-1.58,0-2.82-.35-3.67-1.06-.79-.66-1.16-1.53-1.16-2.77s.36-2.03,1.13-2.67c.82-.67,2.05-1.02,3.63-1.02h5.98v2.9c0,1.36-.51,2.43-1.55,3.27Z"/><path class="cls-4" d="M616.58,28.5l-20.09,54.9h-14.05l5.84-16.11-15.8-38.79h14.55l6.76,18.04c.4,1.06.77,2.29,1.13,3.68.35-1.39.73-2.62,1.11-3.67l6.55-18.04h13.99Z"/><polygon class="cls-3" points="403.1 8.29 399.12 12.26 398.15 13.24 397.16 14.23 394.82 16.57 386.53 8.29 394.82 0 403.1 8.29"/><rect class="cls-5" x="398.11" y="11.58" width="11.72" height="11.72" transform="translate(105.99 290.76) rotate(-45)"/><polygon class="cls-2" points="394.05 17.34 390.49 20.91 389.55 21.84 388.6 22.78 385.76 25.62 377.48 17.34 385.76 9.06 389.33 12.63 390.29 13.58 391.25 14.54 394.05 17.34"/><polygon class="cls-1" points="403.2 26.49 399.95 29.74 399.85 29.83 399.05 30.64 394.92 34.77 386.63 26.49 389.56 23.56 390.52 22.6 391.49 21.64 394.92 18.21 398.97 22.26 399.92 23.21 403.2 26.49"/><path class="cls-2" d="M4.51,135.33L.22,96.64h4.82l2.81,28.2c.03.74.09,1.54.16,2.38.07.85.13,1.66.19,2.44.05.78.08,1.43.08,1.96.07-.53.13-1.18.19-1.96.05-.78.13-1.59.24-2.44.11-.85.19-1.64.26-2.38l3.5-28.2h5.09l3.23,28.2c.11.74.2,1.54.29,2.38.09.85.18,1.66.26,2.44.09.78.15,1.43.19,1.96.03-.53.08-1.18.13-1.96.05-.78.12-1.59.21-2.44.09-.85.15-1.64.19-2.38l2.86-28.2h4.66l-4.45,38.69h-6.31l-3.18-28.62c-.07-.78-.15-1.57-.24-2.38-.09-.81-.17-1.58-.24-2.31-.07-.72-.12-1.33-.16-1.83-.04.5-.1,1.1-.19,1.83-.09.72-.17,1.49-.24,2.31-.07.81-.16,1.61-.27,2.38l-3.44,28.62h-6.36Z"/><path class="cls-2" d="M36.36,135.33v-29.15h5.19v5.57h1.22l-1.22,1.22c0-2.3.7-4.09,2.09-5.38,1.4-1.29,3.33-1.93,5.8-1.93,3,0,5.41.97,7.21,2.92,1.8,1.94,2.7,4.56,2.7,7.84v2.12h-5.3v-1.64c0-2.12-.54-3.76-1.62-4.93-1.08-1.17-2.66-1.75-4.74-1.75s-3.49.57-4.53,1.7c-1.04,1.13-1.56,2.81-1.56,5.04v18.39h-5.25Z"/><path class="cls-2" d="M78.5,135.76c-2.37,0-4.43-.45-6.17-1.35-1.75-.9-3.09-2.19-4.03-3.87-.94-1.68-1.4-3.67-1.4-5.96v-7.63c0-2.3.47-4.28,1.4-5.96.94-1.68,2.28-2.97,4.03-3.87,1.75-.9,3.81-1.35,6.17-1.35s4.47.45,6.2,1.35c1.73.9,3.06,2.18,4,3.84.94,1.66,1.4,3.64,1.4,5.94v7.69c0,2.3-.47,4.28-1.4,5.96-.94,1.68-2.27,2.97-4,3.87-1.73.9-3.8,1.35-6.2,1.35ZM78.5,131.15c2.01,0,3.58-.56,4.69-1.67,1.11-1.11,1.67-2.75,1.67-4.9v-7.63c0-2.16-.56-3.79-1.67-4.9-1.11-1.11-2.68-1.67-4.69-1.67s-3.53.56-4.66,1.67c-1.13,1.11-1.7,2.75-1.7,4.9v7.63c0,2.16.56,3.79,1.7,4.9,1.13,1.11,2.69,1.67,4.66,1.67Z"/><path class="cls-2" d="M110.51,135.86c-2.37,0-4.44-.45-6.23-1.35-1.78-.9-3.16-2.19-4.13-3.87-.97-1.68-1.46-3.68-1.46-6.02v-7.74c0-2.37.49-4.38,1.46-6.04.97-1.66,2.35-2.94,4.13-3.84,1.78-.9,3.86-1.35,6.23-1.35,3.43,0,6.18.91,8.27,2.73,2.08,1.82,3.18,4.3,3.29,7.45h-5.19c-.11-1.77-.72-3.13-1.83-4.08-1.11-.95-2.62-1.43-4.53-1.43-2.01,0-3.61.56-4.8,1.67-1.18,1.11-1.78,2.73-1.78,4.85v7.79c0,2.12.59,3.75,1.78,4.88,1.18,1.13,2.78,1.7,4.8,1.7,1.91,0,3.42-.49,4.53-1.46,1.11-.97,1.72-2.32,1.83-4.05h5.19c-.11,3.15-1.2,5.63-3.29,7.45-2.08,1.82-4.84,2.73-8.27,2.73Z"/><path class="cls-2" d="M146.44,135.33c-1.73,0-3.26-.35-4.58-1.06-1.33-.71-2.35-1.7-3.07-2.97-.72-1.27-1.09-2.77-1.09-4.5v-25.39h-9.96v-4.77h15.21v30.1c0,1.17.33,2.09.98,2.78.65.69,1.55,1.03,2.68,1.03h8.85v4.77h-9.01ZM131.5,123.14v-4.72l19.72-12.77v4.72l-19.72,12.77Z"/><path class="cls-2" d="M171.19,135.86c-3.07,0-5.49-.79-7.23-2.36s-2.62-3.7-2.62-6.39.91-4.92,2.73-6.49c1.82-1.57,4.3-2.36,7.45-2.36h8.48v-2.76c0-1.7-.52-3.01-1.56-3.95-1.04-.94-2.48-1.4-4.32-1.4-1.66,0-3.05.36-4.16,1.09-1.11.72-1.79,1.67-2.04,2.84h-5.14c.14-1.7.72-3.17,1.72-4.43,1.01-1.25,2.35-2.23,4.03-2.94,1.68-.71,3.56-1.06,5.64-1.06,3.43,0,6.13.87,8.11,2.6,1.98,1.73,2.97,4.1,2.97,7.1v19.98h-5.14v-5.41h-.85l.9-1.01c0,2.12-.82,3.81-2.46,5.06-1.64,1.25-3.81,1.88-6.49,1.88ZM172.62,131.78c2.15,0,3.92-.54,5.3-1.62,1.38-1.08,2.07-2.46,2.07-4.16v-3.97h-8.37c-1.56,0-2.78.42-3.68,1.27-.9.85-1.35,2.01-1.35,3.5s.53,2.77,1.59,3.66c1.06.88,2.54,1.33,4.45,1.33Z"/><path class="cls-2" d="M196.05,135.33l-4.61-29.15h4.45l2.81,19.93c.11.85.21,1.77.32,2.76s.18,1.82.21,2.49h.21c.07-.67.16-1.5.27-2.49s.25-1.91.42-2.76l3.07-19.93h4.98l3.07,19.93c.18.85.33,1.77.45,2.76.12.99.2,1.82.24,2.49h.21c.07-.67.17-1.5.29-2.49.12-.99.24-1.91.34-2.76l2.92-19.93h4.24l-4.82,29.15h-5.62l-3.02-19.56c-.14-.99-.28-2.01-.42-3.07-.14-1.06-.25-1.89-.32-2.49h-.21c-.04.6-.12,1.43-.24,2.49-.12,1.06-.27,2.08-.45,3.07l-3.13,19.56h-5.67Z"/></g></svg>