<?xml version="1.0" encoding="UTF-8"?><svg id="Warstwa_2" xmlns="http://www.w3.org/2000/svg" viewBox="0 0 778.9 83.4"><defs><style>.cls-1{fill:#fbb814;}.cls-1,.cls-2,.cls-3,.cls-4,.cls-5{stroke-width:0px;}.cls-2{fill:#7eba28;}.cls-3{fill:#e95228;}.cls-4{fill:#fff;}.cls-5{fill:#339fd9;}</style></defs><path class="cls-4" d="M641.8,35.6l7.7-30h17.4l-12.6,30h-12.5Z"/><path class="cls-4" d="M677.5,80.5v-12.7l24.8-24.8c1.8-1.9,3.2-3.8,4.1-5.6.9-1.9,1.4-3.8,1.4-5.8,0-3-.8-5.4-2.3-7s-3.7-2.5-6.4-2.5-5,.9-6.6,2.6-2.5,4.1-2.5,7.1h-14.5c0-4.6.9-8.6,3-12.1,2-3.3,4.7-6,8.3-7.9s7.8-2.8,12.6-2.8,8.6.9,12.1,2.6c3.4,1.7,6.1,4.1,7.9,7.3,1.9,3.2,2.8,6.9,2.8,11.3,0,4-.9,7.8-2.7,11.4-1.9,3.6-4.8,7.4-8.8,11.3l-15,14.6h27.3v13h-45.5Z"/><path class="cls-4" d="M764.4,80.5v-12.9h-30.9v-20.2l26.5-37.4h15.9l-28.9,41.5v3.6h17.4v-15h14.5v40.5l-14.5-.1h0Z"/><path class="cls-4" d="M34.1,70.5H0v-12.3h10.4v-30.3H0v-12.3h34.1v12.3h-10.3v30.3h10.4l-.1,12.3h0ZM2.7,67.9h28.8v-7h-10.4V25.3h10.4v-7H2.7v7h10.3v35.6H2.7v7Z"/><path class="cls-4" d="M67.6,70.5h-13.4V27.9h-13.2v-12.3h39.9v12.3h-13.3s0,42.6,0,42.6ZM56.9,67.9h8.1V25.3h13.2v-7h-34.5v7h13.2v42.6Z"/><path class="cls-4" d="M136.6,15.6h-15.7l-13.5,54.9h13.7l2.5-11.8h10.4l2.5,11.8h13.7l-13.6-54.9h0ZM131.6,47.5h-5.6l2.3-11.1c.2-.9.4-1.8.5-2.7.2.9.4,1.8.5,2.7l2.3,11.1h0Z"/><path class="cls-4" d="M178.6,53.9h13.1l-.1,1.4c-.2,4.9-2,8.8-5.4,11.7-3.3,2.8-7.8,4.2-13.3,4.2-3.7,0-6.9-.7-9.8-2.1-2.8-1.4-5.1-3.4-6.6-6-1.6-2.6-2.3-5.6-2.3-9v-9.3c0-3.4.8-6.5,2.3-9,1.6-2.5,3.8-4.5,6.6-6,2.8-1.4,6.1-2.1,9.8-2.1,5.5,0,10,1.4,13.3,4.2,3.4,2.9,5.2,6.8,5.4,11.7l.1,1.4h-13.1l-.1-1.2c-.1-1.3-.6-2.3-1.6-3-1-.8-2.4-1.2-4-1.2-1.8,0-3.1.4-4,1.3-.9.8-1.3,2.1-1.3,3.8v9.3c0,1.7.4,2.9,1.3,3.8.9.9,2.2,1.3,4,1.3,1.7,0,3-.4,4.1-1.1.9-.7,1.5-1.7,1.6-3v-1.1h0Z"/><path class="cls-4" d="M229.9,31.7c-3.2-2.6-7.5-3.9-12.9-3.9-3.5,0-6.6.6-9.2,1.7-2.7,1.1-4.8,2.8-6.3,4.9s-2.3,4.7-2.4,7.5l-.1,1.4h12.7v-1.3c0-.8.3-1.5,1.1-2,.9-.6,2.2-.9,3.8-.9s2.9.3,3.8,1c.8.6,1.1,1.4,1.1,2.6v1.5h-6.2c-5.6,0-10,1.2-13.1,3.5-3.2,2.4-4.8,5.8-4.8,10.3,0,4,1.3,7.3,3.9,9.7,2.6,2.4,6,3.6,10.3,3.6,3.9,0,7.1-1,9.4-2.9.3-.2.6-.5.8-.8v3h13v-27.9c0-4.6-1.7-8.3-4.9-11h0ZM219.9,59.4c-1.1.9-2.6,1.3-4.4,1.3-1.6,0-2.8-.3-3.7-1.1-.8-.7-1.2-1.5-1.2-2.8s.4-2,1.1-2.7c.8-.7,2.1-1,3.6-1h6v2.9c.1,1.5-.4,2.6-1.4,3.4Z"/><path class="cls-4" d="M265.1,15.6v12.1l.2,3.9c-2.3-2.6-5.4-3.9-9.3-3.9-4.2,0-7.6,1.6-10.2,4.7-2.6,3-3.9,7.1-3.9,12.1v10c0,5,1.3,9,3.9,12.1,2.6,3.1,6.1,4.7,10.2,4.7s7.2-1.4,9.5-4.1v3.4h13V15.6h-13.4ZM255.3,44.9c0-1.7.4-3,1.2-3.9.8-.9,2-1.2,3.6-1.2,1.7,0,2.9.4,3.7,1.3.8.9,1.3,2.3,1.3,4.2v8.6c0,1.8-.4,3.2-1.3,4.2-.8.9-2,1.3-3.7,1.3-1.6,0-2.8-.4-3.6-1.3-.8-.9-1.2-2.1-1.2-3.8v-9.4h0Z"/><path class="cls-4" d="M309.7,57.1l-.3.9c-.2.7-.7,1.2-1.4,1.6-.8.5-2,.7-3.4.7-2,0-3.5-.5-4.4-1.5-1-1-1.4-2.6-1.4-4.7v-.8h24.1v-8.5c0-3.4-.8-6.4-2.3-9s-3.7-4.6-6.5-6c-2.7-1.4-6-2.1-9.7-2.1s-7,.7-9.7,2.1c-2.8,1.4-5,3.5-6.5,6s-2.3,5.6-2.3,9v9.3c0,3.4.8,6.4,2.3,8.9,1.5,2.6,3.7,4.6,6.6,6,2.8,1.4,6,2.1,9.7,2.1,4.5,0,8.4-1.1,11.7-3.4,3.3-2.3,5.4-5.3,6.4-9.1l.4-1.7h-13.3v.2h0ZM300.1,40.1c.9-1,2.3-1.5,4.3-1.5s3.3.5,4.2,1.5,1.3,2.5,1.4,4.5l-11.2.1c0-2.1.4-3.6,1.3-4.6Z"/><path class="cls-4" d="M368.1,39.1v31.4h-11.7v-30.2c0-.8-.1-1.4-.4-1.7-.1-.2-.4-.4-1-.4s-.9.2-1,.4c-.3.3-.4.9-.4,1.7v30.2h-10.6v-30.2c0-.8-.1-1.4-.4-1.7-.1-.2-.4-.4-1-.4s-.9.2-1,.4c-.3.3-.4.9-.4,1.7v30.2h-11.7V28.5h11.1v1.5c1.5-1.5,3.3-2.3,5.5-2.3,2.4,0,4.4,1,6,2.9.3.3.5.7.8,1,.3-.5.6-1,1.1-1.4,1.5-1.6,3.5-2.5,5.9-2.5,2.8,0,5,1.1,6.8,3.3,1.5,2.2,2.4,4.9,2.4,8.1h0Z"/><polygon class="cls-4" points="412 58.2 412 70.5 374.3 70.5 374.3 58.2 387.3 58.2 387.3 36.5 393.9 43.1 400.7 36.2 400.7 58.2 412 58.2"/><path class="cls-4" d="M441.9,53.9h13.1l-.1,1.4c-.2,4.9-2,8.8-5.4,11.7-3.3,2.8-7.8,4.2-13.3,4.2-3.7,0-7-.7-9.8-2.1s-5.1-3.4-6.6-6-2.3-5.6-2.3-9v-9.3c0-3.4.8-6.5,2.4-9,1.5-2.5,3.8-4.5,6.6-6,2.8-1.4,6.1-2.1,9.8-2.1,5.5,0,10,1.4,13.3,4.2,3.4,2.9,5.2,6.8,5.4,11.7l.1,1.4h-13l-.1-1.2c-.1-1.3-.6-2.3-1.6-3-1-.8-2.4-1.2-4-1.2-1.8,0-3.1.4-4,1.3-.9.8-1.3,2.1-1.3,3.8v9.3c0,1.7.4,2.9,1.3,3.8s2.2,1.3,4,1.3c1.7,0,3-.4,4-1.1s1.5-1.7,1.6-3l-.1-1.1h0Z"/><path class="cls-4" d="M522.7,24.2c-1.6-2.7-3.9-4.8-6.8-6.3-2.9-1.5-6.3-2.2-10.1-2.2h-18.3v54.9h18.3c3.8,0,7.2-.8,10.1-2.3s5.2-3.7,6.8-6.4,2.4-5.9,2.4-9.5v-18.7c.1-3.6-.7-6.8-2.4-9.5h0ZM505.8,58.2h-4.9v-30.3h4.9c1.8,0,3.2.5,4.3,1.6s1.6,2.4,1.6,4.2v18.7c0,1.7-.5,3.1-1.6,4.2-1.1,1.1-2.5,1.6-4.3,1.6h0Z"/><path class="cls-4" d="M563,31.7c-3.2-2.6-7.5-3.9-12.9-3.9-3.5,0-6.6.6-9.2,1.7-2.7,1.1-4.8,2.8-6.3,4.9s-2.3,4.7-2.4,7.5v1.4h12.7v-1.3c0-.8.3-1.5,1.1-2,.9-.6,2.2-.9,3.8-.9s2.9.3,3.8,1c.8.6,1.1,1.4,1.1,2.6v1.5h-6.2c-5.6,0-10,1.2-13.1,3.5-3.2,2.4-4.8,5.8-4.8,10.3,0,4,1.3,7.3,3.9,9.7,2.6,2.4,6,3.6,10.3,3.6,3.9,0,7.1-1,9.4-2.9.3-.2.6-.5.8-.8v3h13v-27.9c-.1-4.6-1.7-8.3-5-11h0ZM553,59.4c-1.1.9-2.6,1.3-4.4,1.3-1.6,0-2.8-.3-3.7-1.1-.8-.7-1.2-1.5-1.2-2.8s.4-2,1.1-2.7c.8-.7,2-1,3.6-1h6v2.9c.1,1.5-.4,2.6-1.4,3.4h0Z"/><path class="cls-4" d="M615.6,28.5l-20.1,54.9h-14l5.8-16.1-15.8-38.8h14.5l6.8,18c.4,1.1.8,2.3,1.1,3.7.3-1.4.7-2.6,1.1-3.7l6.5-18h14.1Z"/><polygon class="cls-3" points="402.1 8.3 398.1 12.3 397.1 13.2 396.2 14.2 393.8 16.6 385.5 8.3 393.8 0 402.1 8.3"/><rect class="cls-2" x="397.08" y="11.62" width="11.7" height="11.7" transform="translate(105.67 290.03) rotate(-45)"/><polygon class="cls-5" points="393 17.3 389.5 20.9 388.5 21.8 387.6 22.8 384.8 25.6 376.5 17.3 384.8 9.1 388.3 12.6 389.3 13.6 390.2 14.5 393 17.3"/><polygon class="cls-1" points="402.2 26.5 399 29.7 398.9 29.8 398 30.6 393.9 34.8 385.6 26.5 388.6 23.6 389.5 22.6 390.5 21.6 393.9 18.2 398 22.3 398.9 23.2 402.2 26.5"/></svg>