<?xml version="1.0" encoding="utf-8"?>
<!-- Generator: Adobe Illustrator 28.4.1, SVG Export Plug-In . SVG Version: 6.00 Build 0)  -->
<svg version="1.1" id="Warstwa_2_00000147188391783072809030000012112975646437463733_"
	 xmlns="http://www.w3.org/2000/svg" xmlns:xlink="http://www.w3.org/1999/xlink" x="0px" y="0px" viewBox="0 0 66.1 29"
	 style="enable-background:new 0 0 66.1 29;" xml:space="preserve">
<style type="text/css">
	.st0{fill:#F4F4F4;}
	.st1{fill:#DB1318;}
</style>
<path class="st0" d="M39.7,28.8l-0.3-0.2l2.4,0c2.2,0,2.4,0,2.5-0.1c0.2-0.1,0.2-0.2,0.2-0.5v-0.2l-1,0c-1,0-1.3-0.1-1.5-0.3
	c-0.3-0.2-0.3-0.3-0.3-1.1c0-0.7,0-0.8,0.1-0.9c0.1-0.1,0.2-0.2,0.4-0.3l0.3-0.1h1.4l1.4,0v1.7c0,1.7,0,1.7-0.1,1.9
	c-0.1,0.1-0.2,0.2-0.3,0.3C44.5,29,44.3,29,42.1,29H40L39.7,28.8L39.7,28.8z M44.5,26.4v-1h-0.9l-0.9,0l-0.1,0.1l-0.1,0.1v0.6
	c0,1,0,1,1.3,1h0.8L44.5,26.4L44.5,26.4z M21.3,28.4L21,28.1l-1,0c-0.5,0-1.1,0-1.1-0.1c-0.2-0.1-0.4-0.2-0.5-0.4
	c-0.1-0.2-0.1-0.2-0.1-1c0-1,0-1.1,0.3-1.3c0.3-0.2,0.5-0.3,1.9-0.3h1.3v1.9c0,1,0,1.9,0,1.9S21.5,28.5,21.3,28.4 M21,26.5v-1.1
	h-0.9c-0.8,0-0.9,0-1,0.1l-0.2,0.2c-0.1,0.2,0,1.4,0,1.6c0.1,0.2,0.3,0.3,1.2,0.3H21C21,27.6,21,26.5,21,26.5z M0.9,28
	c-0.4-0.1-0.7-0.2-0.8-0.5C0,27.4,0,27,0,25.9c0-0.8,0-1.5,0-1.5c0,0,0.2,0.1,0.3,0.3l0.3,0.3h1.1v0.4H0.7v1c0,1.1,0,1.1,0.3,1.3
	c0.1,0,0.2,0.1,0.2,0.1s0.2,0.1,0.4,0.2L2,28H1.5C1.2,28,1,28,0.9,28 M3.7,28c-0.3-0.1-0.4-0.1-0.6-0.3c-0.2-0.2-0.2-0.3-0.3-1.1
	c0-0.9,0-1.2,0.3-1.4c0.3-0.3,0.5-0.3,1.6-0.3h0.9l0.2,0.1c0.4,0.2,0.4,0.4,0.5,1.1l0,0.5H3.5l0,0.3c0,0.2,0,0.3,0.1,0.4
	c0.2,0.2,0.3,0.2,1.5,0.2h1.1l0.3,0.2C6.8,27.9,6.9,28,6.9,28C6.9,28.1,4,28,3.7,28 M5.7,26c0-0.3-0.1-0.4-0.2-0.5
	c-0.2-0.1-1.4-0.1-1.7,0c-0.2,0.1-0.3,0.3-0.3,0.6v0.2h2.2V26L5.7,26z M7.5,26.5v-1.6h0.7v0.3l0.1-0.1c0.2-0.2,0.4-0.2,1.3-0.2
	c0.9,0,1.1,0,1.3,0.3c0.2,0.2,0.2,0.3,0.2,1.6v1.2h-0.6v-1c0-0.6,0-1.1,0-1.2c0-0.1-0.1-0.2-0.2-0.3c-0.1-0.1-0.1-0.1-1-0.1H8.5
	l-0.1,0.1l-0.1,0.1V28H7.5C7.5,28,7.5,26.5,7.5,26.5z M13.3,28c0,0,0.1-0.1,0.2-0.2l0.2-0.2h1.2c1.3,0,1.4,0,1.5-0.3
	c0-0.1,0-0.2,0-0.3c-0.1-0.2-0.2-0.2-1.2-0.2c-1.2,0-1.5-0.1-1.6-0.5c-0.1-0.2-0.1-0.6,0.1-0.9c0.1-0.1,0.2-0.2,0.3-0.2
	c0.2-0.1,0.2-0.1,1.6-0.1h1.4l-0.3,0.2l-0.3,0.2h-1c-0.9,0-1,0-1.1,0.1c-0.1,0.1-0.1,0.1-0.1,0.3s0,0.2,0.1,0.3
	c0.1,0.1,0.1,0.1,1.1,0.1c1,0,1.2,0,1.4,0.2c0.2,0.1,0.3,0.3,0.3,0.7c0,0.5-0.1,0.6-0.4,0.8L16.4,28h-1.6C13.9,28,13.3,28,13.3,28
	 M23.5,28c-0.3-0.1-0.6-0.3-0.6-0.6c0-0.1,0-0.7,0-1.3v-1.1h0.6v1.2l0,1.2l0.1,0.1l0.1,0.1h0.8c0.7,0,0.8,0,0.9,0
	c0.2-0.1,0.3-0.2,0.3-1.5v-1.1h0.7V28h-0.7v-0.2c0-0.1,0-0.2,0-0.1c0,0-0.1,0.1-0.2,0.2c-0.2,0.1-0.3,0.1-1,0.1
	C24,28,23.6,28,23.5,28 M28.1,28c-0.3,0-0.4-0.2-0.5-0.3c-0.1-0.1-0.1-0.2-0.1-0.6c0-0.5,0-0.7,0.3-0.8c0.2-0.1,0.2-0.1,1.3-0.1h1.1
	v-0.2c0-0.2,0-0.2-0.1-0.4l-0.1-0.1h-0.8l-0.8,0l-0.7-0.5h1.2c1.3,0,1.5,0,1.8,0.3c0.3,0.2,0.3,0.3,0.3,1.6V28h-1.3
	C28.9,28,28.2,28,28.1,28 M30.3,27.1v-0.5h-0.9c-1.2,0-1.3,0-1.3,0.5c0,0.2,0,0.3,0.1,0.4l0.2,0.1c0,0,0.5,0,1,0h0.9
	C30.3,27.6,30.3,27.1,30.3,27.1z M32.2,26.5v-1.6h0.7v0.3l0.1-0.1c0.2-0.2,0.4-0.2,1.1-0.2h0.6l-0.3,0.2L34,25.4h-0.5
	c-0.5,0-0.5,0-0.6,0.1l-0.1,0.1V28h-0.7C32.2,28,32.2,26.5,32.2,26.5z M36.4,28c-0.4-0.1-0.6-0.2-0.8-0.5c-0.1-0.1-0.1-0.3-0.1-1
	c0-0.9,0-0.9,0.1-1.1c0.1-0.1,0.2-0.2,0.3-0.3l0.2-0.1h0.9c1.1,0,1.3,0,1.6,0.3c0.2,0.2,0.3,0.4,0.3,1v0.5h-2.8v0.2
	c0,0.3,0.1,0.5,0.3,0.6c0.1,0.1,0.3,0.1,1,0.1h0.8l0.3,0.2c0.2,0.1,0.3,0.2,0.3,0.2C39,28,36.7,28,36.4,28 M38.4,26
	c0-0.5-0.2-0.6-1.1-0.6c-0.9,0-1.1,0.1-1.1,0.6l0,0.3h2.2C38.4,26.2,38.4,26,38.4,26z M47,28c-0.2,0-0.4-0.2-0.5-0.3
	c-0.1-0.1-0.1-0.2-0.1-0.6c0-0.5,0-0.6,0.3-0.8c0.2-0.1,0.2-0.1,1.3-0.1h1.2v-0.2c0-0.2,0-0.2-0.1-0.4l-0.1-0.1l-0.8,0l-0.8,0
	l-0.3-0.2c-0.2-0.1-0.3-0.2-0.3-0.2c0,0,0.5,0,1.2,0c1.1,0,1.3,0,1.4,0.1c0.2,0.1,0.4,0.2,0.5,0.5c0.1,0.2,0.1,0.3,0.1,1.4v1.2h-1.3
	C47.8,28.1,47.1,28,47,28 M49.2,27.1v-0.5h-0.9c-1,0-1.2,0-1.2,0.2c-0.1,0.1,0,0.6,0,0.7c0.1,0.1,0.3,0.1,1.2,0.2h0.9L49.2,27.1
	L49.2,27.1z M51,26.5v-1.6h0.7v0.3l0.1-0.1c0.2-0.2,0.4-0.2,1.1-0.2c0.7,0,0.9,0,1.1,0.3l0.1,0.1l0.2-0.1c0.2-0.2,0.4-0.3,1.3-0.2
	c0.7,0,0.7,0,0.9,0.1c0.3,0.2,0.3,0.3,0.3,1.7V28h-0.7v-1.1c0-1.2,0-1.4-0.2-1.5c-0.1,0-0.4,0-0.7,0h-0.6l-0.1,0.1l-0.1,0.1v1.2
	l0,1.2h-0.7v-2.4l-0.3-0.3h-0.7c-0.6,0-0.7,0-0.8,0.1c-0.1,0.1-0.1,0.2-0.2,0.3s0,0.6,0,1.2v1H51L51,26.5L51,26.5z M58.8,28
	c-0.4-0.1-0.6-0.2-0.8-0.5c-0.1-0.1-0.1-0.3-0.1-1c0-0.8,0-0.9,0.1-1.1c0.1-0.1,0.2-0.2,0.3-0.3l0.2-0.1h0.9c1.1,0,1.3,0,1.6,0.3
	c0.2,0.2,0.3,0.4,0.3,1v0.5h-2.9l0,0.3c0,0.1,0.1,0.3,0.1,0.4c0.1,0.2,0.3,0.2,1.6,0.2h1.2l0.3,0.2c0.2,0.1,0.3,0.2,0.3,0.2
	C62.1,28.1,59.1,28,58.8,28L58.8,28z M60.8,26c0-0.5-0.2-0.6-1.1-0.6s-1.1,0.1-1.1,0.6l0,0.3h2.2L60.8,26L60.8,26z M63.2,27.8
	l-0.3-0.2l2.3,0l0.1-0.1c0.1-0.1,0.1-0.4,0.1-0.6c-0.1-0.2-0.2-0.2-1.3-0.2c-0.9,0-1,0-1.2-0.1c-0.3-0.1-0.4-0.2-0.4-0.6
	c0-0.4,0-0.5,0.2-0.7c0.2-0.2,0.5-0.2,1.8-0.2h1.3l-0.3,0.2l-0.3,0.2h-0.9c-1,0-1.1,0-1.2,0.3c0,0.2,0,0.4,0.2,0.5
	c0.1,0.1,0.3,0.1,1.1,0.1c1.1,0,1.3,0.1,1.5,0.3c0.1,0.2,0.2,0.5,0.1,0.8c-0.1,0.3-0.2,0.4-0.4,0.6C65.4,28,65.4,28,64.5,28h-0.9
	L63.2,27.8L63.2,27.8z"/>
<path class="st1" d="M31.7,11.5h2.6V8.9h-2.6V11.5z M29.2,11.5l2.6,2.6v-2.6L29.2,11.5L29.2,11.5z M36.8,16.6l0.5,0.6l2.6-2.6
	L39.4,14L36.8,16.6z M34.3,14.1l2.6-2.6l0,0h-2.6V14.1L34.3,14.1z M31.7,14.1l-2.5,2.5l3.8,3.8l3.8-3.8l-2.5-2.5
	C34.3,14.1,31.7,14.1,31.7,14.1z M28.6,17.2l0.5-0.5L26.6,14l-0.6,0.6L28.6,17.2L28.6,17.2z M39.4,6.4l-2.5,2.5v2.6l2.5,2.5l3.8-3.8
	C43.2,10.2,39.4,6.4,39.4,6.4z M37.4,3.3l-0.5,0.5l2.6,2.6L40,5.8L37.4,3.3z M29.2,3.8l2.5,2.5h2.6l2.5-2.5L33,0L29.2,3.8z
	 M34.3,8.9h2.6l-2.6-2.6l0,0L34.3,8.9L34.3,8.9z M22.8,10.2l3.8,3.8l2.5-2.5V8.9l-2.5-2.5L22.8,10.2z M29.2,8.9h2.6V6.3L29.2,8.9z
	 M28.6,3.3l-2.6,2.6l0.6,0.6l2.6-2.6L28.6,3.3L28.6,3.3z"/>
</svg>
